<?xml version="1.0" encoding="utf-8"?>
<!-- Generator: Adobe Illustrator 28.0.0, SVG Export Plug-In . SVG Version: 6.00 Build 0)  -->
<svg version="1.1" id="Layer_1" xmlns="http://www.w3.org/2000/svg" xmlns:xlink="http://www.w3.org/1999/xlink" x="0px" y="0px"
	 viewBox="0 0 24 24" style="enable-background:new 0 0 24 24;" xml:space="preserve">
<style type="text/css">
	.st0{fill:#501B1D;}
</style>
<path class="st0" d="M5,19h1.4l9.8-9.8l-1.4-1.4L5,17.6V19z M3,21v-4.2L16.2,3.6c0.2-0.2,0.4-0.3,0.7-0.4C17.1,3,17.4,3,17.6,3
	c0.3,0,0.5,0,0.8,0.1c0.2,0.1,0.5,0.2,0.7,0.5L20.4,5c0.2,0.2,0.3,0.4,0.4,0.7S21,6.1,21,6.4c0,0.3,0,0.5-0.1,0.8
	c-0.1,0.2-0.2,0.5-0.4,0.7L7.2,21H3z M19,6.4L17.6,5L19,6.4z M15.5,8.5l-0.7-0.7l1.4,1.4L15.5,8.5z"/>
</svg>
